<?xml version="1.0" standalone="no"?>
<!DOCTYPE svg PUBLIC "-//W3C//DTD SVG 20010904//EN"
 "http://www.w3.org/TR/2001/REC-SVG-20010904/DTD/svg10.dtd">
<svg version="1.0" xmlns="http://www.w3.org/2000/svg"
 width="288.000000pt" height="235.000000pt" viewBox="0 0 288.000000 235.000000"
 preserveAspectRatio="xMidYMid meet">

<g transform="translate(0.000000,235.000000) scale(0.100000,-0.100000)"
fill="#000000" stroke="none">
<path d="M272 2159 c-46 -14 -115 -85 -130 -135 -17 -57 -18 -1688 -1 -1745
16 -52 61 -103 112 -128 43 -21 47 -21 1192 -21 1145 0 1149 0 1192 21 51 25
96 76 112 128 8 27 11 278 11 878 l0 839 -27 55 c-19 35 -43 64 -71 84 l-44
30 -1156 2 c-720 1 -1170 -2 -1190 -8z m1027 -353 l116 -116 -112 -112 c-62
-62 -117 -126 -122 -141 -21 -55 -7 -139 23 -150 7 -3 81 63 164 146 l152 150
26 -24 25 -23 -151 -151 c-82 -82 -150 -157 -150 -165 0 -16 79 -100 95 -100
6 0 75 65 155 145 80 80 148 145 152 145 12 0 10 -58 -3 -83 -16 -31 -449
-465 -481 -483 -15 -8 -46 -14 -70 -14 -42 0 -44 1 -290 248 l-248 247 0 46
c0 35 7 56 29 85 38 53 447 453 474 464 12 6 40 8 61 6 35 -4 53 -18 155 -120z
m527 102 c41 -32 446 -438 467 -468 10 -14 17 -43 17 -69 l0 -44 -243 -245
c-235 -236 -245 -244 -289 -249 -62 -7 -85 8 -203 126 l-99 101 111 113 c62
62 117 125 122 141 23 60 6 156 -28 156 -9 0 -81 -65 -161 -145 -80 -80 -150
-145 -156 -145 -6 0 -19 9 -29 20 -19 21 -17 23 133 173 84 84 152 157 152
162 0 16 -83 95 -100 95 -8 0 -78 -63 -155 -140 -77 -77 -143 -140 -147 -140
-13 0 -9 49 6 78 17 31 473 487 496 495 35 12 79 6 106 -15z m-328 -1388 c8 0
12 17 12 45 0 45 0 45 35 45 l35 0 0 -50 c0 -41 -5 -55 -25 -74 l-24 -22 29
-36 c28 -33 28 -36 12 -51 -30 -27 -38 -23 -95 47 l-57 69 0 -67 0 -66 -35 0
-35 0 0 74 c0 54 4 77 15 86 14 11 14 15 0 37 -15 22 -15 25 7 43 l23 20 46
-50 c25 -28 51 -50 57 -50z m-838 -5 l0 -95 40 0 41 0 -3 63 c-3 56 -5 62 -26
65 -19 3 -23 9 -20 30 3 24 8 27 44 30 62 5 79 -20 79 -119 0 -68 -3 -81 -23
-101 -20 -20 -33 -23 -100 -23 -116 0 -112 -4 -112 123 0 60 3 112 7 115 3 4
21 7 40 7 l33 0 0 -95z m359 80 c38 -19 41 -30 41 -141 l0 -94 -35 0 -34 0 -3
93 -3 92 -72 3 c-69 3 -73 4 -73 27 0 27 14 31 98 34 30 0 65 -5 81 -14z m240
4 c42 -15 51 -35 51 -114 0 -36 -4 -75 -10 -85 -12 -23 -61 -40 -114 -40 -65
0 -86 9 -86 36 0 23 3 24 65 24 l65 0 0 65 0 65 -65 0 c-62 0 -65 1 -65 24 0
15 7 26 18 29 34 9 110 7 141 -4z m548 -23 c22 -26 24 -35 21 -119 l-3 -92
-35 0 -35 0 -5 90 -5 90 -67 3 c-64 3 -68 4 -68 27 0 29 16 34 104 31 61 -2
71 -5 93 -30z m133 -61 l0 -95 37 0 c29 0 34 3 25 12 -7 7 -12 44 -12 95 l0
83 30 0 30 0 0 -96 c0 -93 1 -95 23 -92 21 3 22 8 25 96 l3 92 34 0 35 0 0
-98 c0 -93 -2 -100 -25 -122 -21 -20 -39 -25 -94 -28 -37 -2 -93 1 -124 8
l-57 11 0 115 0 114 35 0 35 0 0 -95z m368 33 l3 -58 -41 0 c-38 0 -40 2 -40
30 0 17 -4 30 -10 30 -5 0 -10 14 -10 31 0 30 1 30 48 27 l47 -3 3 -57z"/>
</g>
</svg>
